<?xml version="1.0" encoding="UTF-8" standalone="no"?>
<!DOCTYPE svg PUBLIC "-//W3C//DTD SVG 1.1//EN"
 "http://www.w3.org/Graphics/SVG/1.1/DTD/svg11.dtd">
<!-- Generated by graphviz version 2.43.0 (0)
 -->
<!-- Title: tu_web_linguacheck_architecture Pages: 1 -->
<svg width="1689pt" height="400pt"
 viewBox="0.00 0.00 1689.00 400.00" xmlns="http://www.w3.org/2000/svg" xmlns:xlink="http://www.w3.org/1999/xlink">
<g id="graph0" class="graph" transform="scale(1 1) rotate(0) translate(4 396)">
<title>tu_web_linguacheck_architecture</title>
<g id="clust1" class="cluster">
<title>cluster_crawl</title>
<polygon fill="transparent" stroke="#2ca02c" stroke-dasharray="5,2" points="304,-265 304,-384 1308.5,-384 1308.5,-265 304,-265"/>
<text text-anchor="middle" x="806.25" y="-368.8" font-family="Arial" font-size="14.00" fill="#2ca02c">Kontrollierter HTML&#45;Crawl</text>
</g>
<!-- cli -->
<g id="node1" class="node">
<title>cli</title>
<path fill="#2b5e8f" stroke="#333333" d="M42,-137C42,-137 12,-137 12,-137 6,-137 0,-131 0,-125 0,-125 0,-113 0,-113 0,-107 6,-101 12,-101 12,-101 42,-101 42,-101 48,-101 54,-107 54,-113 54,-113 54,-125 54,-125 54,-131 48,-137 42,-137"/>
<text text-anchor="middle" x="27" y="-122" font-family="Arial" font-size="10.00" fill="white">CLI</text>
<text text-anchor="middle" x="27" y="-111" font-family="Arial" font-size="10.00" fill="white">Typer</text>
</g>
<!-- config -->
<g id="node2" class="node">
<title>config</title>
<path fill="#d4e1f9" stroke="#333333" d="M204,-278C204,-278 125,-278 125,-278 119,-278 113,-272 113,-266 113,-266 113,-254 113,-254 113,-248 119,-242 125,-242 125,-242 204,-242 204,-242 210,-242 216,-248 216,-254 216,-254 216,-266 216,-266 216,-272 210,-278 204,-278"/>
<text text-anchor="middle" x="164.5" y="-263" font-family="Arial" font-size="10.00">Projektkonfiguration</text>
<text text-anchor="middle" x="164.5" y="-252" font-family="Arial" font-size="10.00">Pydantic + YAML</text>
</g>
<!-- cli&#45;&gt;config -->
<g id="edge1" class="edge">
<title>cli&#45;&gt;config</title>
<path fill="none" stroke="#555555" d="M41.6,-137.29C57.88,-159.21 83,-193 83,-193 83,-193 110.74,-216.09 133.65,-235.16"/>
<polygon fill="#555555" stroke="#555555" points="131.58,-237.98 141.5,-241.69 136.06,-232.6 131.58,-237.98"/>
</g>
<!-- crawler -->
<g id="node3" class="node">
<title>crawler</title>
<path fill="#2ca02c" stroke="#333333" d="M451,-309C451,-309 324,-309 324,-309 318,-309 312,-303 312,-297 312,-297 312,-285 312,-285 312,-279 318,-273 324,-273 324,-273 451,-273 451,-273 457,-273 463,-279 463,-285 463,-285 463,-297 463,-297 463,-303 457,-309 451,-309"/>
<text text-anchor="middle" x="387.5" y="-294" font-family="Arial" font-size="10.00" fill="white">Crawl&#45;Orchestrierung</text>
<text text-anchor="middle" x="387.5" y="-283" font-family="Arial" font-size="10.00" fill="white">BFS + Seitenlimit + Rate&#45;Limit</text>
</g>
<!-- cli&#45;&gt;crawler -->
<g id="edge2" class="edge">
<title>cli&#45;&gt;crawler</title>
<path fill="none" stroke="#555555" d="M54.07,-131.51C114.1,-160.31 262.79,-231.65 339.32,-268.36"/>
<polygon fill="#555555" stroke="#555555" points="338.2,-271.71 348.73,-272.88 341.23,-265.4 338.2,-271.71"/>
<text text-anchor="middle" x="164.5" y="-211.8" font-family="Arial" font-size="9.00">späterer Crawl&#45;Befehl</text>
</g>
<!-- http -->
<g id="node7" class="node">
<title>http</title>
<path fill="#83b818" stroke="#333333" d="M780,-218.5C780,-218.5 632,-218.5 632,-218.5 626,-218.5 620,-212.5 620,-206.5 620,-206.5 620,-189.5 620,-189.5 620,-183.5 626,-177.5 632,-177.5 632,-177.5 780,-177.5 780,-177.5 786,-177.5 792,-183.5 792,-189.5 792,-189.5 792,-206.5 792,-206.5 792,-212.5 786,-218.5 780,-218.5"/>
<text text-anchor="middle" x="706" y="-206.5" font-family="Arial" font-size="10.00" fill="white">Sicherer HTTP&#45;Abruf</text>
<text text-anchor="middle" x="706" y="-195.5" font-family="Arial" font-size="10.00" fill="white">robots.txt + Redirects + HTML&#45;only</text>
<text text-anchor="middle" x="706" y="-184.5" font-family="Arial" font-size="10.00" fill="white">Timeout + Größenlimit</text>
</g>
<!-- cli&#45;&gt;http -->
<g id="edge3" class="edge">
<title>cli&#45;&gt;http</title>
<path fill="none" stroke="#555555" d="M54.12,-122.05C145.25,-132.68 452.07,-168.49 609.73,-186.88"/>
<polygon fill="#555555" stroke="#555555" points="609.55,-190.39 619.89,-188.07 610.37,-183.43 609.55,-190.39"/>
<text text-anchor="middle" x="264" y="-151.8" font-family="Arial" font-size="9.00">check&#45;url</text>
</g>
<!-- languagetool -->
<g id="node10" class="node">
<title>languagetool</title>
<path fill="#6a0dad" stroke="#333333" d="M1317,-92C1317,-92 1198,-92 1198,-92 1192,-92 1186,-86 1186,-80 1186,-80 1186,-68 1186,-68 1186,-62 1192,-56 1198,-56 1198,-56 1317,-56 1317,-56 1323,-56 1329,-62 1329,-68 1329,-68 1329,-80 1329,-80 1329,-86 1323,-92 1317,-92"/>
<text text-anchor="middle" x="1257.5" y="-77" font-family="Arial" font-size="10.00" fill="white">Lokaler LanguageTool&#45;Server</text>
<text text-anchor="middle" x="1257.5" y="-66" font-family="Arial" font-size="10.00" fill="white">127.0.0.1:8081</text>
</g>
<!-- cli&#45;&gt;languagetool -->
<g id="edge4" class="edge">
<title>cli&#45;&gt;languagetool</title>
<path fill="none" stroke="#555555" d="M48.58,-100.93C86.49,-67.64 163.5,0 163.5,0 163.5,0 163.5,0 989,0 989,0 1102.32,-31.35 1181.45,-53.24"/>
<polygon fill="#555555" stroke="#555555" points="1180.83,-56.7 1191.4,-55.99 1182.7,-49.95 1180.83,-56.7"/>
<text text-anchor="middle" x="541.5" y="-2.8" font-family="Arial" font-size="9.00">check&#45;text</text>
</g>
<!-- config&#45;&gt;crawler -->
<g id="edge5" class="edge">
<title>config&#45;&gt;crawler</title>
<path fill="none" stroke="#555555" d="M216.2,-267.11C241.51,-270.66 272.8,-275.05 301.63,-279.1"/>
<polygon fill="#555555" stroke="#555555" points="301.33,-282.59 311.72,-280.51 302.3,-275.65 301.33,-282.59"/>
</g>
<!-- urls -->
<g id="node6" class="node">
<title>urls</title>
<path fill="#e2f2e2" stroke="#333333" d="M1041,-352.5C1041,-352.5 935,-352.5 935,-352.5 929,-352.5 923,-346.5 923,-340.5 923,-340.5 923,-323.5 923,-323.5 923,-317.5 929,-311.5 935,-311.5 935,-311.5 1041,-311.5 1041,-311.5 1047,-311.5 1053,-317.5 1053,-323.5 1053,-323.5 1053,-340.5 1053,-340.5 1053,-346.5 1047,-352.5 1041,-352.5"/>
<text text-anchor="middle" x="988" y="-340.5" font-family="Arial" font-size="10.00">URLs</text>
<text text-anchor="middle" x="988" y="-329.5" font-family="Arial" font-size="10.00">Normalisierung + Allowlist</text>
<text text-anchor="middle" x="988" y="-318.5" font-family="Arial" font-size="10.00">Ausschlussmuster</text>
</g>
<!-- config&#45;&gt;urls -->
<g id="edge6" class="edge">
<title>config&#45;&gt;urls</title>
<path fill="none" stroke="#555555" d="M199.68,-278.06C221.22,-289.44 245,-302 245,-302 245,-302 304,-327 304,-327 304,-327 620,-365 620,-365 620,-365 792,-365 792,-365 792,-365 894,-349 894,-349 894,-349 901.82,-347.57 912.92,-345.54"/>
<polygon fill="#555555" stroke="#555555" points="913.71,-348.96 922.92,-343.71 912.45,-342.07 913.71,-348.96"/>
</g>
<!-- config&#45;&gt;languagetool -->
<g id="edge7" class="edge">
<title>config&#45;&gt;languagetool</title>
<path fill="none" stroke="#555555" d="M216.31,-247.59C334.91,-218.62 620,-149 620,-149 620,-149 923,-111 923,-111 923,-111 1077.11,-93.9 1175.81,-82.95"/>
<polygon fill="#555555" stroke="#555555" points="1176.22,-86.43 1185.77,-81.85 1175.45,-79.47 1176.22,-86.43"/>
<text text-anchor="middle" x="706" y="-151.8" font-family="Arial" font-size="9.00">Sprache</text>
</g>
<!-- queue -->
<g id="node4" class="node">
<title>queue</title>
<path fill="#e2f2e2" stroke="#333333" d="M1288.5,-325C1288.5,-325 1226.5,-325 1226.5,-325 1220.5,-325 1214.5,-319 1214.5,-313 1214.5,-313 1214.5,-301 1214.5,-301 1214.5,-295 1220.5,-289 1226.5,-289 1226.5,-289 1288.5,-289 1288.5,-289 1294.5,-289 1300.5,-295 1300.5,-301 1300.5,-301 1300.5,-313 1300.5,-313 1300.5,-319 1294.5,-325 1288.5,-325"/>
<text text-anchor="middle" x="1257.5" y="-310" font-family="Arial" font-size="10.00">CrawlQueue</text>
<text text-anchor="middle" x="1257.5" y="-299" font-family="Arial" font-size="10.00">CrawlCandidate</text>
</g>
<!-- crawler&#45;&gt;queue -->
<g id="edge8" class="edge">
<title>crawler&#45;&gt;queue</title>
<path fill="none" stroke="#555555" d="M463.11,-291.34C636.71,-292.12 1053,-294 1053,-294 1053,-294 1143.91,-299.81 1204.2,-303.66"/>
<polygon fill="#555555" stroke="#555555" points="1204.13,-307.16 1214.33,-304.31 1204.58,-300.18 1204.13,-307.16"/>
</g>
<!-- links -->
<g id="node5" class="node">
<title>links</title>
<path fill="#e2f2e2" stroke="#333333" d="M741.5,-347C741.5,-347 670.5,-347 670.5,-347 664.5,-347 658.5,-341 658.5,-335 658.5,-335 658.5,-323 658.5,-323 658.5,-317 664.5,-311 670.5,-311 670.5,-311 741.5,-311 741.5,-311 747.5,-311 753.5,-317 753.5,-323 753.5,-323 753.5,-335 753.5,-335 753.5,-341 747.5,-347 741.5,-347"/>
<text text-anchor="middle" x="706" y="-332" font-family="Arial" font-size="10.00">page_links</text>
<text text-anchor="middle" x="706" y="-321" font-family="Arial" font-size="10.00">Links aus &lt;main&gt;</text>
</g>
<!-- crawler&#45;&gt;links -->
<g id="edge10" class="edge">
<title>crawler&#45;&gt;links</title>
<path fill="none" stroke="#555555" d="M463.11,-299.96C519.82,-306.77 596.64,-315.99 648.37,-322.2"/>
<polygon fill="#555555" stroke="#555555" points="648.02,-325.68 658.36,-323.4 648.85,-318.73 648.02,-325.68"/>
<text text-anchor="middle" x="541.5" y="-316.8" font-family="Arial" font-size="9.00">HTML</text>
</g>
<!-- crawler&#45;&gt;http -->
<g id="edge9" class="edge">
<title>crawler&#45;&gt;http</title>
<path fill="none" stroke="#555555" stroke-dasharray="5,2" d="M439.04,-272.93C465.31,-263.54 492,-254 492,-254 492,-254 558.5,-236.52 617.18,-221.09"/>
<polygon fill="#555555" stroke="#555555" points="618.11,-224.46 626.9,-218.53 616.33,-217.69 618.11,-224.46"/>
<text text-anchor="middle" x="541.5" y="-256.8" font-family="Arial" font-size="9.00">spätere Live&#45;Anbindung</text>
</g>
<!-- links&#45;&gt;urls -->
<g id="edge11" class="edge">
<title>links&#45;&gt;urls</title>
<path fill="none" stroke="#555555" d="M753.55,-329.5C796.83,-329.96 862.04,-330.66 912.55,-331.2"/>
<polygon fill="#555555" stroke="#555555" points="912.73,-334.7 922.77,-331.31 912.81,-327.7 912.73,-334.7"/>
<text text-anchor="middle" x="857.5" y="-332.8" font-family="Arial" font-size="9.00">Kandidaten</text>
</g>
<!-- urls&#45;&gt;queue -->
<g id="edge12" class="edge">
<title>urls&#45;&gt;queue</title>
<path fill="none" stroke="#555555" d="M1053.07,-326.01C1099.29,-321.69 1160.91,-315.93 1204.18,-311.89"/>
<polygon fill="#555555" stroke="#555555" points="1204.58,-315.37 1214.21,-310.95 1203.93,-308.4 1204.58,-315.37"/>
<text text-anchor="middle" x="1119.5" y="-325.8" font-family="Arial" font-size="9.00">vorbereitete URLs</text>
</g>
<!-- http&#45;&gt;urls -->
<g id="edge18" class="edge">
<title>http&#45;&gt;urls</title>
<path fill="none" stroke="#555555" stroke-dasharray="5,2" d="M750.14,-218.64C799.77,-242.4 881.27,-281.4 934.54,-306.89"/>
<polygon fill="#555555" stroke="#555555" points="933.28,-310.17 943.81,-311.33 936.31,-303.86 933.28,-310.17"/>
<text text-anchor="middle" x="857.5" y="-286.8" font-family="Arial" font-size="9.00">Weiterleitungsziel</text>
</g>
<!-- content -->
<g id="node8" class="node">
<title>content</title>
<path fill="#e2a929" stroke="#333333" d="M1032,-165C1032,-165 944,-165 944,-165 938,-165 932,-159 932,-153 932,-153 932,-141 932,-141 932,-135 938,-129 944,-129 944,-129 1032,-129 1032,-129 1038,-129 1044,-135 1044,-141 1044,-141 1044,-153 1044,-153 1044,-159 1038,-165 1032,-165"/>
<text text-anchor="middle" x="988" y="-150" font-family="Arial" font-size="10.00">HTML&#45;Inhalt</text>
<text text-anchor="middle" x="988" y="-139" font-family="Arial" font-size="10.00">Titel + sichtbarer Text</text>
</g>
<!-- http&#45;&gt;content -->
<g id="edge13" class="edge">
<title>http&#45;&gt;content</title>
<path fill="none" stroke="#555555" d="M792.15,-182.49C833.8,-174.9 883.14,-165.92 921.75,-158.88"/>
<polygon fill="#555555" stroke="#555555" points="922.62,-162.28 931.83,-157.05 921.37,-155.4 922.62,-162.28"/>
</g>
<!-- languages -->
<g id="node9" class="node">
<title>languages</title>
<path fill="#e2a929" stroke="#333333" d="M1032.5,-237C1032.5,-237 943.5,-237 943.5,-237 937.5,-237 931.5,-231 931.5,-225 931.5,-225 931.5,-213 931.5,-213 931.5,-207 937.5,-201 943.5,-201 943.5,-201 1032.5,-201 1032.5,-201 1038.5,-201 1044.5,-207 1044.5,-213 1044.5,-213 1044.5,-225 1044.5,-225 1044.5,-231 1038.5,-237 1032.5,-237"/>
<text text-anchor="middle" x="988" y="-222" font-family="Arial" font-size="10.00">Sprachlinks</text>
<text text-anchor="middle" x="988" y="-211" font-family="Arial" font-size="10.00">hreflang + Umschalter</text>
</g>
<!-- http&#45;&gt;languages -->
<g id="edge14" class="edge">
<title>http&#45;&gt;languages</title>
<path fill="none" stroke="#555555" d="M792.15,-204.39C833.65,-207.5 882.79,-211.18 921.34,-214.08"/>
<polygon fill="#555555" stroke="#555555" points="921.18,-217.57 931.41,-214.83 921.7,-210.59 921.18,-217.57"/>
</g>
<!-- content&#45;&gt;languagetool -->
<g id="edge15" class="edge">
<title>content&#45;&gt;languagetool</title>
<path fill="none" stroke="#555555" d="M1044.1,-131.96C1083.49,-121.21 1136.99,-106.61 1180.44,-94.76"/>
<polygon fill="#555555" stroke="#555555" points="1181.39,-98.13 1190.11,-92.12 1179.55,-91.37 1181.39,-98.13"/>
<text text-anchor="middle" x="1119.5" y="-124.8" font-family="Arial" font-size="9.00">extrahierter Text</text>
</g>
<!-- findings -->
<g id="node11" class="node">
<title>findings</title>
<path fill="#a0522d" stroke="#333333" d="M1492,-92C1492,-92 1400,-92 1400,-92 1394,-92 1388,-86 1388,-80 1388,-80 1388,-68 1388,-68 1388,-62 1394,-56 1400,-56 1400,-56 1492,-56 1492,-56 1498,-56 1504,-62 1504,-68 1504,-68 1504,-80 1504,-80 1504,-86 1498,-92 1492,-92"/>
<text text-anchor="middle" x="1446" y="-77" font-family="Arial" font-size="10.00" fill="white">Findings</text>
<text text-anchor="middle" x="1446" y="-66" font-family="Arial" font-size="10.00" fill="white">Normalisierung + Filter</text>
</g>
<!-- languagetool&#45;&gt;findings -->
<g id="edge16" class="edge">
<title>languagetool&#45;&gt;findings</title>
<path fill="none" stroke="#555555" d="M1329.01,-74C1344.92,-74 1361.76,-74 1377.54,-74"/>
<polygon fill="#555555" stroke="#555555" points="1377.74,-77.5 1387.74,-74 1377.74,-70.5 1377.74,-77.5"/>
</g>
<!-- reports -->
<g id="node12" class="node">
<title>reports</title>
<polygon fill="#555555" stroke="#333333" points="1675,-92 1563,-92 1563,-56 1681,-56 1681,-86 1675,-92"/>
<polyline fill="none" stroke="#333333" points="1675,-92 1675,-86 "/>
<polyline fill="none" stroke="#333333" points="1681,-86 1675,-86 "/>
<text text-anchor="middle" x="1622" y="-71.5" font-family="Arial" font-size="10.00" fill="white">Spätere lokale Berichte</text>
</g>
<!-- findings&#45;&gt;reports -->
<g id="edge17" class="edge">
<title>findings&#45;&gt;reports</title>
<path fill="none" stroke="#555555" d="M1504.46,-74C1519.8,-74 1536.54,-74 1552.42,-74"/>
<polygon fill="#555555" stroke="#555555" points="1552.71,-77.5 1562.71,-74 1552.71,-70.5 1552.71,-77.5"/>
</g>
</g>
</svg>
